<svg xmlns="http://www.w3.org/2000/svg" width="1680" height="1049" viewBox="0 0 1680 1049">
  <metadata><?xpacket begin="﻿" id="W5M0MpCehiHzreSzNTczkc9d"?>
<x:xmpmeta xmlns:x="adobe:ns:meta/" x:xmptk="Adobe XMP Core 5.6-c138 79.159824, 2016/09/14-01:09:01        ">
   <rdf:RDF xmlns:rdf="http://www.w3.org/1999/02/22-rdf-syntax-ns#">
      <rdf:Description rdf:about=""/>
   </rdf:RDF>
</x:xmpmeta>
                                                                                                    
                                                                                                    
                                                                                                    
                                                                                                    
                                                                                                    
                                                                                                    
                                                                                                    
                                                                                                    
                                                                                                    
                                                                                                    
                                                                                                    
                                                                                                    
                                                                                                    
                                                                                                    
                                                                                                    
                                                                                                    
                                                                                                    
                                                                                                    
                                                                                                    
                                                                                                    
                           
<?xpacket end="w"?></metadata>
<defs>
    <style>
      .cls-1 {
        fill-rule: evenodd;
      }
    </style>
  </defs>
  <path id="Shape_4_copy" data-name="Shape 4 copy" class="cls-1" d="M1361.95,546.22l-5.46,19.8c-1.22,3.548,2.67,3.978,2.67,3.978l-2.54,8.5h-6.3c-5.73-.231-7.51-6.637-7.51-6.637-7.62,7.261-17.62,10.969-23.96,3.838s-1.16-21.93,17.74-28.077c9.53-3.1,11.73-1.219,11.73-1.219,3.91-8.843.85-11.435-4.35-10.48a24.185,24.185,0,0,0-12.13,5.792l-5.04-7.7c16.81-10.146,30.78-6.746,35.43-1.264C1365.66,536.794,1361.95,546.22,1361.95,546.22Zm-28.46,12.462c-2.32,2.833-4.98,9.989-.22,10.755s10.14-2,12.17-10.439l1.02-5.676S1337.36,553.97,1333.49,558.682Zm-45.82,19.854c-21.04.173-16.11-15.262-14.51-21.974s6.34-18.122,6.34-18.122c5.28-13.213,21.52-11.548,21.52-11.548,16.7,0,18.05,10.2,13.94,24.291S1308.71,578.362,1287.67,578.536Zm10.72-41.889s-4.61-.859-6.12,3.51c0,0-4.25,12.24-5.88,19.224s0.4,9.5,3.69,9.391,5.93,0.26,7.95-4.889c0,0,4.65-15.712,5.71-19.727S1303.91,536.392,1298.39,536.647ZM1246.12,578.7c-8.65.106-10.67-5.323-11.13-8.135l-2.02,7.341h-13.72l17.98-68.05,14.45-.136-6.84,24.915c9.52-8.811,18.29-7.8,21.23-6.247,3.09,1.631,6.52,5.586,1.57,22.492S1259.77,578.537,1246.12,578.7Zm6.55-40.867c-3.09-1.177-6.18.925-9.62,3.94,0,0-4.66,15.788-5.48,19.365s3.1,5.486,5.86,5.529,5.16-.544,6.38-3.321c0,0,4.9-15.952,5.38-18.377S1255.77,539.015,1252.67,537.837Zm-55.85,40.073,17.98-68.05,14.45-.136-18.71,68.186h-13.72Zm-6.83-11.893c-1.22,3.548,2.67,3.978,2.67,3.978l-2.54,8.5h-6.3c-5.73-.231-7.51-6.637-7.51-6.637-7.62,7.261-17.62,10.969-23.96,3.838s-1.16-21.93,17.74-28.077c9.53-3.1,11.73-1.219,11.73-1.219,3.91-8.843.85-11.435-4.35-10.48a24.185,24.185,0,0,0-12.13,5.792l-5.04-7.7c16.81-10.146,30.78-6.746,35.43-1.264,3.43,4.052-.28,13.478-0.28,13.478Zm-23-7.335c-2.32,2.833-4.98,9.989-.22,10.755s10.14-2,12.17-10.439l1.02-5.676S1170.86,553.97,1166.99,558.682Zm-25.91-16.807s8.31,3.276,7.47,11.913c-1.47,15.232-14.77,23.606-22.2,23.78h-32.32l18.33-68.1,28.91,0.033c13.97,0.015,15.55,11.251,14.1,16.4C1153.95,530.9,1150.49,540.556,1141.08,541.875Zm-29.23,25.2,0.15-.105h8.51c4.07,0,8.3-2.691,8.3-2.691a8.85,8.85,0,0,0,3.76-5.352c0.39-3.077.55-4.924,0.55-4.924,0.32-4.865-4.83-6.151-4.83-6.151l-10.78.142Zm26.73-44.834c-1.05-1.786-5.24-2.116-5.24-2.116l-8.22-.012-5.15,17.026h-0.07l0.02,0.16,0.05-.16h8.64c5.17-.065,9.08-4.87,9.08-4.87a17.483,17.483,0,0,0,1.42-3.17l0.36-3.053A5.429,5.429,0,0,0,1138.58,522.241Z"/>
</svg>
