<svg xmlns="http://www.w3.org/2000/svg" xmlns:xlink="http://www.w3.org/1999/xlink" width="64" height="64" viewBox="0 0 64 64">
  <metadata><?xpacket begin="﻿" id="W5M0MpCehiHzreSzNTczkc9d"?>
<x:xmpmeta xmlns:x="adobe:ns:meta/" x:xmptk="Adobe XMP Core 5.6-c138 79.159824, 2016/09/14-01:09:01        ">
   <rdf:RDF xmlns:rdf="http://www.w3.org/1999/02/22-rdf-syntax-ns#">
      <rdf:Description rdf:about=""/>
   </rdf:RDF>
</x:xmpmeta>
                                                                                                    
                                                                                                    
                                                                                                    
                                                                                                    
                                                                                                    
                                                                                                    
                                                                                                    
                                                                                                    
                                                                                                    
                                                                                                    
                                                                                                    
                                                                                                    
                                                                                                    
                                                                                                    
                                                                                                    
                                                                                                    
                                                                                                    
                                                                                                    
                                                                                                    
                                                                                                    
                           
<?xpacket end="w"?></metadata>
<defs>
    <style>
      .cls-1 {
        fill-rule: evenodd;
        filter: url(#filter);
      }
    </style>
    <filter id="filter" x="2" y="2" width="60" height="60" filterUnits="userSpaceOnUse">
      <feFlood result="flood" flood-color="#242626"/>
      <feComposite result="composite" operator="in" in2="SourceGraphic"/>
      <feBlend result="blend" in2="SourceGraphic"/>
    </filter>
  </defs>
  <path class="cls-1" d="M4,9H2V61a0.945,0.945,0,0,0,1,1H37V60H4V9ZM8,4H39v8a0.945,0.945,0,0,0,1,1h8v3h2V12h0a0.367,0.367,0,0,0-.1-0.3V11.6c-0.1-.1-0.1-0.2-0.2-0.3l-9-9c-0.1-.1-0.2-0.1-0.3-0.2H40.3C40.2,2.1,40.1,2,40,2H7A0.945,0.945,0,0,0,6,3V57a0.945,0.945,0,0,0,1,1H41V56H8V4Zm38.6,7H41V5.4ZM25,29h2v2H25V29Zm-4,0h2v2H21V29Zm-4,0h2v2H17V29Zm-4,0h2v2H13V29Zm16,0h2v2H29V29ZM11,7h2V9H11V7Zm4,0h2V9H15V7Zm0,4h2v2H15V11Zm-4,0h2v2H11V11Zm8-4h8V9H19V7Zm0,4h8v2H19V11Zm-8,7H37v2H11V18Zm0,5H45v2H11V23Zm0,12H45v2H11V35Zm0,5H45v2H11V40Zm0,5H33v2H11V45Zm24,0h2v2H35V45Zm4,0h2v2H39V45Zm4,0h2v2H43V45ZM58,35a4.079,4.079,0,0,0-3.9,3H50V31h6a0.945,0.945,0,0,0,1-1V13.9A4.012,4.012,0,1,0,52,10a4.079,4.079,0,0,0,3,3.9V29H33v2H48V50.1A4.012,4.012,0,1,0,53,54a4.079,4.079,0,0,0-3-3.9V40h4.1A4.012,4.012,0,1,0,58,35ZM54,10a2,2,0,1,1,2,2A2.006,2.006,0,0,1,54,10ZM51,54a2,2,0,1,1-2-2A2.006,2.006,0,0,1,51,54Zm7-13a2,2,0,1,1,2-2A2.006,2.006,0,0,1,58,41ZM11,50H23v2H11V50Z"/>
</svg>
