<svg xmlns="http://www.w3.org/2000/svg" xmlns:xlink="http://www.w3.org/1999/xlink" width="64" height="64" viewBox="0 0 64 64">
  <metadata><?xpacket begin="﻿" id="W5M0MpCehiHzreSzNTczkc9d"?>
<x:xmpmeta xmlns:x="adobe:ns:meta/" x:xmptk="Adobe XMP Core 5.6-c138 79.159824, 2016/09/14-01:09:01        ">
   <rdf:RDF xmlns:rdf="http://www.w3.org/1999/02/22-rdf-syntax-ns#">
      <rdf:Description rdf:about=""/>
   </rdf:RDF>
</x:xmpmeta>
                                                                                                    
                                                                                                    
                                                                                                    
                                                                                                    
                                                                                                    
                                                                                                    
                                                                                                    
                                                                                                    
                                                                                                    
                                                                                                    
                                                                                                    
                                                                                                    
                                                                                                    
                                                                                                    
                                                                                                    
                                                                                                    
                                                                                                    
                                                                                                    
                                                                                                    
                                                                                                    
                           
<?xpacket end="w"?></metadata>
<defs>
    <style>
      .cls-1 {
        fill-rule: evenodd;
        filter: url(#filter);
      }
    </style>
    <filter id="filter" x="4" y="2" width="55" height="60" filterUnits="userSpaceOnUse">
      <feFlood result="flood" flood-color="#f3a60a"/>
      <feComposite result="composite" operator="in" in2="SourceGraphic"/>
      <feBlend result="blend" in2="SourceGraphic"/>
    </filter>
  </defs>
  <path class="cls-1" d="M37.417,3.741A5.452,5.452,0,0,0,33.436,2H29.5a5.451,5.451,0,0,0-3.981,1.742A5.559,5.559,0,0,0,24.06,7.866l0.175,2.706,0.408,6.318a6.883,6.883,0,0,0,3.53,5.6,6.755,6.755,0,0,0,6.595,0,6.882,6.882,0,0,0,3.53-5.6l0.467-7.22,0.117-1.8A5.562,5.562,0,0,0,37.417,3.741Zm-10.9,5.453-0.1-1.483a3.106,3.106,0,0,1,.828-2.335A3.045,3.045,0,0,1,29.5,4.39h3.459L32.192,6.466C32,6.764,30.616,8.666,26.518,9.194Zm9.417,7.541A4.5,4.5,0,0,1,33.626,20.4a4.417,4.417,0,0,1-4.313,0,4.5,4.5,0,0,1-2.309-3.664l-0.333-5.153A11.575,11.575,0,0,0,33,9.068a5.091,5.091,0,0,0,.947.624,11.987,11.987,0,0,0,2.392.826Zm0.583-9.024-0.024.375a8.04,8.04,0,0,1-1.462-.517,2.339,2.339,0,0,1-.575-0.389L35.266,5a3.148,3.148,0,0,1,.423.38A3.1,3.1,0,0,1,36.517,7.711ZM48.867,36.3L48.216,32.67a10.616,10.616,0,0,0-8.39-8.534,10.457,10.457,0,0,0-1.949-.184H35.219a1.178,1.178,0,0,0-.838.352l-2.919,2.957-2.992-2.966a1.178,1.178,0,0,0-.829-0.342H25.063a10.465,10.465,0,0,0-1.95.184h0a10.617,10.617,0,0,0-8.389,8.534L14.072,36.3a1.2,1.2,0,0,0,.256.979A1.212,1.212,0,0,0,15,38H48a1.138,1.138,0,0,0,.611-0.722A1.2,1.2,0,0,0,48.867,36.3ZM27.156,26.342L30.64,29.8a1.176,1.176,0,0,0,1.668-.009l3.4-3.446h1.2L31.47,31.835l-5.44-5.493h1.126ZM17,36l0.053-2.9a8.238,8.238,0,0,1,5.9-6.474l7.675,7.749a1.176,1.176,0,0,0,1.674,0l7.675-7.749a8.238,8.238,0,0,1,5.9,6.474h0L46,36H17Zm19.282,7.023H35.56a1.192,1.192,0,0,0,0,2.384h0.722A1.192,1.192,0,0,0,36.282,43.022ZM32.654,53.238V41.186a1.184,1.184,0,1,0-2.367,0v1.836H12.673a5.449,5.449,0,0,0-5.425,5.461v4.755a4.432,4.432,0,1,0,2.367,0V48.484c0-1.7.7-3.436,2.384-3.436H30l0.286,8.191A4.432,4.432,0,1,0,32.654,53.238ZM11,57.488a2.5,2.5,0,1,1-2.5-2.5A2.5,2.5,0,0,1,11,57.488Zm20.506,2.5a2.5,2.5,0,1,1,2.5-2.5A2.5,2.5,0,0,1,31.5,59.989Zm24.144-7.072,0.047-4.433a5.449,5.449,0,0,0-5.425-5.461H40.493a1.188,1.188,0,0,0-1.184,1.192c0,0.658,1.038.833,1.691,0.833H51c1.686,0,2.324,1.739,2.324,3.436l-0.08,4.469a4.608,4.608,0,0,0-3.233,4.43A4.5,4.5,0,1,0,55.645,52.917Zm-1.139,7.072a2.5,2.5,0,1,1,2.5-2.5A2.5,2.5,0,0,1,54.506,59.989Z"/>
</svg>
