<svg xmlns="http://www.w3.org/2000/svg" width="64" height="64" viewBox="0 0 64 64">
  <metadata><?xpacket begin="﻿" id="W5M0MpCehiHzreSzNTczkc9d"?>
<x:xmpmeta xmlns:x="adobe:ns:meta/" x:xmptk="Adobe XMP Core 5.6-c138 79.159824, 2016/09/14-01:09:01        ">
   <rdf:RDF xmlns:rdf="http://www.w3.org/1999/02/22-rdf-syntax-ns#">
      <rdf:Description rdf:about=""/>
   </rdf:RDF>
</x:xmpmeta>
                                                                                                    
                                                                                                    
                                                                                                    
                                                                                                    
                                                                                                    
                                                                                                    
                                                                                                    
                                                                                                    
                                                                                                    
                                                                                                    
                                                                                                    
                                                                                                    
                                                                                                    
                                                                                                    
                                                                                                    
                                                                                                    
                                                                                                    
                                                                                                    
                                                                                                    
                                                                                                    
                           
<?xpacket end="w"?></metadata>
<defs>
    <style>
      .cls-1 {
        fill-rule: evenodd;
      }
    </style>
  </defs>
  <path class="cls-1" d="M61.966,14.413h-3.1V13.379a1.033,1.033,0,1,0-2.066,0L57,14H53l-0.334-.621a1.033,1.033,0,1,0-2.066,0L51,14H46V5c0-.621.053-0.931-0.567-0.931h-9.3V3.034a1.033,1.033,0,1,0-2.066,0V4.069H29.933V3.034a1.033,1.033,0,1,0-2.066,0V4.069h-9.3C17.947,4.069,18,4.379,18,5v9H13l0.4-.621a1.033,1.033,0,1,0-2.067,0L11,14H7l0.2-.621a0.977,0.977,0,0,0-1.033-1.035,0.977,0.977,0,0,0-1.033,1.035v1.034h-3.1A0.977,0.977,0,0,0,1,15.448V60.965A0.977,0.977,0,0,0,2.033,62H61.966A0.977,0.977,0,0,0,63,60.965V15.448A0.977,0.977,0,0,0,61.966,14.413ZM61,16V52H46V16H61ZM3,16H18V52H3V16ZM3,54H18v6H3V54Zm17-1V6H44V60H41V51a0.925,0.925,0,0,0-1-1H24a0.925,0.925,0,0,0-1,1v9H20V53h0Zm5-1h6v8H25V52h0Zm8,8V52h6v8H33Zm28,0H46V54H61v6ZM25.8,17.517h2.066a2.074,2.074,0,0,0,2.067-2.069V13.379a2.074,2.074,0,0,0-2.067-2.069H25.8a2.074,2.074,0,0,0-2.067,2.069v2.069A2.074,2.074,0,0,0,25.8,17.517Zm0-4.138h2.066v2.069H25.8V13.379Zm10.333,4.138H38.2a2.074,2.074,0,0,0,2.067-2.069V13.379A2.074,2.074,0,0,0,38.2,11.31H36.133a2.074,2.074,0,0,0-2.067,2.069v2.069A2.074,2.074,0,0,0,36.133,17.517Zm0-4.138H38.2v2.069H36.133V13.379ZM25.8,25.793h2.066a2.074,2.074,0,0,0,2.067-2.069V21.655a2.074,2.074,0,0,0-2.067-2.069H25.8a2.074,2.074,0,0,0-2.067,2.069v2.069A2.074,2.074,0,0,0,25.8,25.793Zm0-4.138h2.066v2.069H25.8V21.655Zm10.333,4.138H38.2a2.074,2.074,0,0,0,2.067-2.069V21.655A2.074,2.074,0,0,0,38.2,19.586H36.133a2.074,2.074,0,0,0-2.067,2.069v2.069A2.074,2.074,0,0,0,36.133,25.793Zm0-4.138H38.2v2.069H36.133V21.655ZM25.8,34.069h2.066A2.074,2.074,0,0,0,29.933,32V29.93a2.074,2.074,0,0,0-2.067-2.069H25.8a2.074,2.074,0,0,0-2.067,2.069V32A2.074,2.074,0,0,0,25.8,34.069Zm0-4.138h2.066V32H25.8V29.93Zm10.333,4.138H38.2A2.074,2.074,0,0,0,40.267,32V29.93A2.074,2.074,0,0,0,38.2,27.862H36.133a2.074,2.074,0,0,0-2.067,2.069V32A2.074,2.074,0,0,0,36.133,34.069Zm0-4.138H38.2V32H36.133V29.93ZM25.8,42.344h2.066a2.074,2.074,0,0,0,2.067-2.069V38.207a2.074,2.074,0,0,0-2.067-2.069H25.8a2.074,2.074,0,0,0-2.067,2.069v2.069A2.074,2.074,0,0,0,25.8,42.344Zm0-4.138h2.066v2.069H25.8V38.207Zm10.333,4.138H38.2a2.074,2.074,0,0,0,2.067-2.069V38.207A2.074,2.074,0,0,0,38.2,36.137H36.133a2.074,2.074,0,0,0-2.067,2.069v2.069A2.074,2.074,0,0,0,36.133,42.344Zm0-4.138H38.2v2.069H36.133V38.207ZM52.666,24.758h2.067A2.074,2.074,0,0,0,56.8,22.689V20.62a2.074,2.074,0,0,0-2.067-2.069H52.666A2.074,2.074,0,0,0,50.6,20.62v2.069A2.074,2.074,0,0,0,52.666,24.758Zm0-4.138h2.067v2.069H52.666V20.62Zm0,12.414h2.067A2.074,2.074,0,0,0,56.8,30.965V28.9a2.074,2.074,0,0,0-2.067-2.069H52.666A2.074,2.074,0,0,0,50.6,28.9v2.069A2.074,2.074,0,0,0,52.666,33.034Zm0-4.138h2.067v2.069H52.666V28.9Zm0,12.414h2.067A2.074,2.074,0,0,0,56.8,39.241V37.172A2.074,2.074,0,0,0,54.733,35.1H52.666A2.074,2.074,0,0,0,50.6,37.172v2.069A2.074,2.074,0,0,0,52.666,41.31Zm0-4.138h2.067v2.069H52.666V37.172Zm0,12.414h2.067A2.074,2.074,0,0,0,56.8,47.517V45.448a2.074,2.074,0,0,0-2.067-2.069H52.666A2.074,2.074,0,0,0,50.6,45.448v2.069A2.074,2.074,0,0,0,52.666,49.586Zm0-4.138h2.067v2.069H52.666V45.448Zm-41.333-26.9H9.267A2.074,2.074,0,0,0,7.2,20.62v2.069a2.074,2.074,0,0,0,2.067,2.069h2.067A2.074,2.074,0,0,0,13.4,22.689V20.62A2.074,2.074,0,0,0,11.333,18.551Zm0,4.138H9.267V20.62h2.067v2.069h0Zm0,4.138H9.267A2.074,2.074,0,0,0,7.2,28.9v2.069a2.074,2.074,0,0,0,2.067,2.069h2.067A2.074,2.074,0,0,0,13.4,30.965V28.9A2.074,2.074,0,0,0,11.333,26.827Zm0,4.138H9.267V28.9h2.067v2.069h0Zm0,4.138H9.267A2.074,2.074,0,0,0,7.2,37.172v2.069A2.074,2.074,0,0,0,9.267,41.31h2.067A2.074,2.074,0,0,0,13.4,39.241V37.172A2.074,2.074,0,0,0,11.333,35.1Zm0,4.138H9.267V37.172h2.067v2.069h0Zm0,4.138H9.267A2.074,2.074,0,0,0,7.2,45.448v2.069a2.074,2.074,0,0,0,2.067,2.069h2.067A2.074,2.074,0,0,0,13.4,47.517V45.448A2.074,2.074,0,0,0,11.333,43.379Zm0,4.138H9.267V45.448h2.067v2.069h0Z"/>
</svg>
