<svg xmlns="http://www.w3.org/2000/svg" xmlns:xlink="http://www.w3.org/1999/xlink" width="64" height="64" viewBox="0 0 64 64">
  <metadata><?xpacket begin="﻿" id="W5M0MpCehiHzreSzNTczkc9d"?>
<x:xmpmeta xmlns:x="adobe:ns:meta/" x:xmptk="Adobe XMP Core 5.6-c138 79.159824, 2016/09/14-01:09:01        ">
   <rdf:RDF xmlns:rdf="http://www.w3.org/1999/02/22-rdf-syntax-ns#">
      <rdf:Description rdf:about=""/>
   </rdf:RDF>
</x:xmpmeta>
                                                                                                    
                                                                                                    
                                                                                                    
                                                                                                    
                                                                                                    
                                                                                                    
                                                                                                    
                                                                                                    
                                                                                                    
                                                                                                    
                                                                                                    
                                                                                                    
                                                                                                    
                                                                                                    
                                                                                                    
                                                                                                    
                                                                                                    
                                                                                                    
                                                                                                    
                                                                                                    
                           
<?xpacket end="w"?></metadata>
<defs>
    <style>
      .cls-1 {
        fill-rule: evenodd;
        filter: url(#filter);
      }
    </style>
    <filter id="filter" x="2" y="2" width="60" height="60" filterUnits="userSpaceOnUse">
      <feFlood result="flood" flood-color="#242626"/>
      <feComposite result="composite" operator="in" in2="SourceGraphic"/>
      <feBlend result="blend" in2="SourceGraphic"/>
    </filter>
  </defs>
  <path class="cls-1" d="M14.857,27.714a6.429,6.429,0,1,0-6.429-6.428A6.435,6.435,0,0,0,14.857,27.714Zm0-10.714a4.286,4.286,0,1,1-4.286,4.286A4.29,4.29,0,0,1,14.857,17ZM49.143,27.714a6.429,6.429,0,1,0-6.429-6.428A6.435,6.435,0,0,0,49.143,27.714Zm0-10.714a4.286,4.286,0,1,1-4.286,4.286A4.29,4.29,0,0,1,49.143,17ZM59.857,29.857V43.785A3.219,3.219,0,0,1,56.643,47V35.214a5.363,5.363,0,0,0-5.357-5.357H45.928a1.072,1.072,0,0,0-1.071,1.072v6.429H36.286a1.072,1.072,0,0,0-1.071,1.071v3.214H28.786V38.428a1.072,1.072,0,0,0-1.071-1.071H19.143V30.928a1.072,1.072,0,0,0-1.071-1.072H12.714a5.364,5.364,0,0,0-5.357,5.357V47a3.218,3.218,0,0,1-3.214-3.214V29.857H2V43.785a5.361,5.361,0,0,0,3.214,4.9V62H7.357V49.142H18.071V60.928A1.072,1.072,0,0,0,19.143,62H24.5V43.785h15V62h5.357a1.072,1.072,0,0,0,1.071-1.071V49.142H56.643V62h2.143V48.688A5.361,5.361,0,0,0,62,43.785V29.857H59.857ZM23.429,41.643H14.857V35.214H12.714v7.5a1.072,1.072,0,0,0,1.071,1.071h7.5a1.073,1.073,0,0,1,1.071,1.072v15H20.214V48.071A1.072,1.072,0,0,0,19.143,47H9.5V35.214A3.218,3.218,0,0,1,12.714,32H17v6.429A1.072,1.072,0,0,0,18.071,39.5h8.572v2.143H23.429ZM44.857,47a1.072,1.072,0,0,0-1.071,1.071V59.857H41.643v-15a1.073,1.073,0,0,1,1.071-1.072h7.5a1.072,1.072,0,0,0,1.072-1.071v-7.5H49.143v6.429H37.357V39.5h8.571A1.072,1.072,0,0,0,47,38.428V32h4.286A3.218,3.218,0,0,1,54.5,35.214V47H44.857Zm-22.5-34.286v3.214a1.072,1.072,0,0,0,.733,1.017,1.089,1.089,0,0,0,.339.054,1.073,1.073,0,0,0,.857-0.428l2.893-3.857h8.036A3.218,3.218,0,0,0,38.428,9.5V5.214A3.218,3.218,0,0,0,35.214,2H22.357a3.218,3.218,0,0,0-3.214,3.214V9.5A3.218,3.218,0,0,0,22.357,12.714Zm-1.071-7.5a1.073,1.073,0,0,1,1.071-1.072H35.214a1.073,1.073,0,0,1,1.071,1.072V9.5a1.073,1.073,0,0,1-1.071,1.071H26.643a1.07,1.07,0,0,0-.857.429L24.5,12.714V11.643a1.072,1.072,0,0,0-1.071-1.072H22.357A1.073,1.073,0,0,1,21.286,9.5V5.214Zm2.143,1.071H34.143V8.428H23.429V6.285Zm7.5,22.5h6.429v2.143H30.928V28.785ZM29.857,24.5a3.218,3.218,0,0,0-3.214,3.214V32a3.218,3.218,0,0,0,3.214,3.214h8.571A3.218,3.218,0,0,0,41.643,32V31.253l1.963-2.944a1.072,1.072,0,0,0-.891-1.666H41.46A3.221,3.221,0,0,0,38.428,24.5H29.857ZM39.5,27.714a1.072,1.072,0,0,0,1.072,1.072h0.14L39.68,30.334a1.079,1.079,0,0,0-.18.595V32a1.073,1.073,0,0,1-1.071,1.072H29.857A1.073,1.073,0,0,1,28.786,32V27.714a1.073,1.073,0,0,1,1.071-1.071h8.571A1.073,1.073,0,0,1,39.5,27.714ZM26.643,19.142h2.143v2.143H26.643V19.142Zm4.286,0h2.143v2.143H30.928V19.142Zm4.286,0h2.143v2.143H35.214V19.142Z"/>
</svg>
