<svg xmlns="http://www.w3.org/2000/svg" xmlns:xlink="http://www.w3.org/1999/xlink" width="64" height="64" viewBox="0 0 64 64">
  <metadata><?xpacket begin="﻿" id="W5M0MpCehiHzreSzNTczkc9d"?>
<x:xmpmeta xmlns:x="adobe:ns:meta/" x:xmptk="Adobe XMP Core 5.6-c138 79.159824, 2016/09/14-01:09:01        ">
   <rdf:RDF xmlns:rdf="http://www.w3.org/1999/02/22-rdf-syntax-ns#">
      <rdf:Description rdf:about=""/>
   </rdf:RDF>
</x:xmpmeta>
                                                                                                    
                                                                                                    
                                                                                                    
                                                                                                    
                                                                                                    
                                                                                                    
                                                                                                    
                                                                                                    
                                                                                                    
                                                                                                    
                                                                                                    
                                                                                                    
                                                                                                    
                                                                                                    
                                                                                                    
                                                                                                    
                                                                                                    
                                                                                                    
                                                                                                    
                                                                                                    
                           
<?xpacket end="w"?></metadata>
<defs>
    <style>
      .cls-1 {
        fill-rule: evenodd;
        filter: url(#filter);
      }
    </style>
    <filter id="filter" x="6.969" y="2" width="50.031" height="60" filterUnits="userSpaceOnUse">
      <feFlood result="flood" flood-color="#242626"/>
      <feComposite result="composite" operator="in" in2="SourceGraphic"/>
      <feBlend result="blend" in2="SourceGraphic"/>
    </filter>
  </defs>
  <path id="Forma_1" data-name="Forma 1" class="cls-1" d="M49.208,60.085H48.785C48.333,57.9,46.352,57,44,57H35V54a30.717,30.717,0,0,0,10.159-1.8,0.965,0.965,0,0,0,.527-0.518,0.942,0.942,0,0,0,0-.733l-0.5-1.179a0.98,0.98,0,0,0-1.272-.518,0.952,0.952,0,0,0-.527,1.251l0.117,0.278a25.88,25.88,0,0,1-7.934,1.552v-0.3a0.974,0.974,0,0,0-1.948,0v0.3A25.677,25.677,0,0,1,10.9,36.784,25.076,25.076,0,0,1,23.89,4.225L24.007,4.5a0.98,0.98,0,0,0,1.272.518,0.951,0.951,0,0,0,.527-1.251l-0.5-1.179a0.98,0.98,0,0,0-1.273-.518A27,27,0,0,0,9.1,37.517C13.364,47.628,23.549,53.618,34,54c0.1,0.71,0,3,0,3H25c-2.352,0-4.137.9-4.589,3.085H19.988a0.958,0.958,0,1,0,0,1.915h29.22A0.958,0.958,0,1,0,49.208,60.085ZM25,58H44a3.1,3.1,0,0,1,2.768,2.085H22.428A2.852,2.852,0,0,1,25,58ZM54.768,36.692a21.632,21.632,0,0,0,.527-17.984A22.352,22.352,0,0,0,34.59,5.109a22.608,22.608,0,0,0-8.564,1.682A22.07,22.07,0,0,0,13.9,18.709a21.534,21.534,0,0,0,0,16.854,22.352,22.352,0,0,0,20.705,13.6,22.606,22.606,0,0,0,8.564-1.682A22.155,22.155,0,0,0,54.648,36.934a0.946,0.946,0,0,0,.114-0.224Zm-1.457-1.464a22.737,22.737,0,0,0-4.967-.878,32.527,32.527,0,0,0-.489-3.593,0.974,0.974,0,0,0-1.138-.764,0.958,0.958,0,0,0-.777,1.118,30.514,30.514,0,0,1,.443,3.2,22.727,22.727,0,0,0-7.151,1.324l-3.363-7.981,8.088-3.293c0.408,1.035.772,2.082,1.087,3.125a0.976,0.976,0,0,0,1.211.646,0.955,0.955,0,0,0,.657-1.19c-0.333-1.106-.721-2.217-1.154-3.313l8.087-3.293A19.738,19.738,0,0,1,53.311,35.228ZM25.983,31.68l8.088-3.293,3.363,7.98A22.416,22.416,0,0,0,31.422,40.4,35.935,35.935,0,0,1,25.983,31.68Zm17.231-9.088-8.088,3.293L31.762,17.9a22.416,22.416,0,0,0,6.012-4.038A35.932,35.932,0,0,1,43.214,22.592Zm-20.442-6.3c0.255-3.521,1.359-6.053,3.14-7.27l3.3,7.843a20.758,20.758,0,0,1-6.5,1.181C22.713,17.449,22.731,16.863,22.772,16.293Zm8.244-.16-3.3-7.843c2.135-.379,4.737.645,7.449,2.958q0.659,0.562,1.3,1.2A20.457,20.457,0,0,1,31.016,16.133Zm-1.054,2.5,3.363,7.982-8.088,3.293a35.54,35.54,0,0,1-2.43-9.95A22.734,22.734,0,0,0,29.962,18.636Zm13.32,26.607-3.3-7.838a20.75,20.75,0,0,1,6.494-1.181C46.509,40.5,45.373,43.8,43.283,45.243Zm-5.1-7.105,3.3,7.843c-2.135.378-4.737-.646-7.45-2.958q-0.659-.561-1.3-1.2A20.443,20.443,0,0,1,38.18,38.138ZM53.1,18.566l-8.086,3.292a37.794,37.794,0,0,0-5.885-9.38,21.99,21.99,0,0,0,2.891-4.092A20.254,20.254,0,0,1,53.1,18.566ZM40.139,7.774A20.063,20.063,0,0,1,37.8,11.061q-0.672-.667-1.364-1.259a16.8,16.8,0,0,0-4.106-2.653,20.685,20.685,0,0,1,2.259-.125A20.9,20.9,0,0,1,40.139,7.774ZM21.826,11.421a16.232,16.232,0,0,0-1,4.736q-0.065.9-.059,1.838a20.722,20.722,0,0,1-4.012-.7A20,20,0,0,1,21.826,11.421ZM15.7,19.441c0.057-.135.115-0.268,0.175-0.4a22.715,22.715,0,0,0,4.976.88,37.355,37.355,0,0,0,2.586,10.723L15.35,33.937A19.644,19.644,0,0,1,15.7,19.441Zm0.4,16.264,8.086-3.292a37.8,37.8,0,0,0,5.885,9.38,21.979,21.979,0,0,0-2.891,4.092A20.257,20.257,0,0,1,16.1,35.705ZM29.057,46.5A20.079,20.079,0,0,1,31.4,43.211q0.672,0.668,1.364,1.259a16.783,16.783,0,0,0,4.109,2.653A20.811,20.811,0,0,1,29.057,46.5ZM47.37,42.842a13.442,13.442,0,0,0,.513-1.615,19.853,19.853,0,0,0,.543-4.951,20.753,20.753,0,0,1,4,.695A20.16,20.16,0,0,1,47.37,42.842Z"/>
</svg>
