<svg xmlns="http://www.w3.org/2000/svg" width="1680" height="1049" viewBox="0 0 1680 1049">
  <metadata><?xpacket begin="﻿" id="W5M0MpCehiHzreSzNTczkc9d"?>
<x:xmpmeta xmlns:x="adobe:ns:meta/" x:xmptk="Adobe XMP Core 5.6-c138 79.159824, 2016/09/14-01:09:01        ">
   <rdf:RDF xmlns:rdf="http://www.w3.org/1999/02/22-rdf-syntax-ns#">
      <rdf:Description rdf:about=""/>
   </rdf:RDF>
</x:xmpmeta>
                                                                                                    
                                                                                                    
                                                                                                    
                                                                                                    
                                                                                                    
                                                                                                    
                                                                                                    
                                                                                                    
                                                                                                    
                                                                                                    
                                                                                                    
                                                                                                    
                                                                                                    
                                                                                                    
                                                                                                    
                                                                                                    
                                                                                                    
                                                                                                    
                                                                                                    
                                                                                                    
                           
<?xpacket end="w"?></metadata>
<defs>
    <style>
      .cls-1 {
        fill-opacity: 0.32;
        fill-rule: evenodd;
      }
    </style>
  </defs>
  <path class="cls-1" d="M1053.64,593.7a50.278,50.278,0,0,1-24.59,7.557c0-.011.01-0.021,0.01-0.032a50.258,50.258,0,0,1-44.629-23.633h-0.043c-0.13-.209-0.245-0.422-0.372-0.633-0.023-.037-0.044-0.075-0.066-0.112a50.6,50.6,0,0,1-3.436-6.858c-0.034-.084-0.066-0.168-0.1-0.251a49.883,49.883,0,0,1-2.251-7.064c-0.05-.209-0.1-0.419-0.148-0.629-0.252-1.125-.473-2.253-0.647-3.385-0.04-.262-0.068-0.527-0.105-0.79q-0.186-1.357-.3-2.718c-0.02-.24-0.062-0.475-0.078-0.715l0.016-.016A50.277,50.277,0,1,1,1053.64,593.7Zm-29.19-80.151-0.02.028h0.02v-0.028Zm34.41,5.244a45.284,45.284,0,0,0-23.95-12.336,1.391,1.391,0,0,1,0,1.286l-0.05.065a2.221,2.221,0,0,1,.25,1.384,1.45,1.45,0,0,1-1.56,1.337,1.388,1.388,0,0,1-.18-0.024,3.189,3.189,0,0,1-1.35-.444,2.814,2.814,0,0,0-.92-0.365,1.341,1.341,0,0,0-.66.291,10.388,10.388,0,0,0-.7,1.165,6.365,6.365,0,0,1-.98,1.43,4.67,4.67,0,0,1-3.72,1.047c-0.03.057-.06,0.109-0.08,0.15a8.6,8.6,0,0,1-.78,1.1c-0.44.548-.53,0.649-0.57,0.7a3.3,3.3,0,0,0-.77,1.466c0,0.12-.03.375-0.08,1.016a5.315,5.315,0,0,1-.12.792,1.992,1.992,0,0,1,1.22,1.209,3.387,3.387,0,0,1,.25.756,9.2,9.2,0,0,1,3.92.43,7.8,7.8,0,0,1,3.11,1.729,3.515,3.515,0,0,1,2.27.189l0.08,0.039a4.157,4.157,0,0,1,1.49,2.628,4.386,4.386,0,0,0,.92,1.8,0.752,0.752,0,0,0,.93.34l0.24-.162a5.171,5.171,0,0,0,.47-0.249,2.928,2.928,0,0,0,.34-0.252,3.35,3.35,0,0,1-.8-1.37,2.13,2.13,0,0,1,.16-1.872l0.03-.038a4.936,4.936,0,0,1,1.37-1.058,2.3,2.3,0,0,0,1.02-.964,0.829,0.829,0,0,0-.55-1.017,2.25,2.25,0,0,1-1.33-1.644,1.935,1.935,0,0,1,.64-1.285,0.834,0.834,0,0,0,.29-0.549v-0.09a5.154,5.154,0,0,0-.24-0.778,5.611,5.611,0,0,1-.34-1.2,1.6,1.6,0,0,1,.47-1.2l0.06-.074,0.08-.047a4.411,4.411,0,0,1,2.89-.024,8.655,8.655,0,0,1,2.81.8,5.8,5.8,0,0,0,.92.419,9.6,9.6,0,0,1,1.42.69,1.736,1.736,0,0,1,.9.981l0.16,0.658h-0.02a2.34,2.34,0,0,1,.13.452,1.218,1.218,0,0,1-.03.628,3.691,3.691,0,0,1,.36.128,1.758,1.758,0,0,1,.84.549l0.06-.031,0.05-.027a1.8,1.8,0,0,0,.27-0.2,1.557,1.557,0,0,1,.53-0.329,3.177,3.177,0,0,1,.42-0.1,1.087,1.087,0,0,1,.41,0l0.05-.063c0.17-.252.37-0.52,0.59-0.794a1.353,1.353,0,0,1,.96-0.584,1.073,1.073,0,0,1,.79.348,1.924,1.924,0,0,1,.41.548c0.08,0.165.16,0.34,0.24,0.529s0.13,0.3.18,0.392l0.02,0.041a1.534,1.534,0,0,0,.55.575,2.548,2.548,0,0,1,.91,1.039c0.06,0.184.15,0.5,0.33,1.222a1.984,1.984,0,0,0,.45,1.006,2.617,2.617,0,0,0,.96.46,2.066,2.066,0,0,0,.38-0.082,2.314,2.314,0,0,1,1.14-.085,0.913,0.913,0,0,1,.64.5l0.58-.022a2.82,2.82,0,0,0,.41,1.354,0.84,0.84,0,0,0,.87.312l0.63-.052-0.22,2.444-0.06.1a2.14,2.14,0,0,1-1.51.822,3.942,3.942,0,0,0-.97.274l-0.13.1a6.985,6.985,0,0,0-.92.8,3.361,3.361,0,0,0-.61.677,0.419,0.419,0,0,0-.09-0.414l-0.77.729-0.03-.033a3.25,3.25,0,0,0-3.4-.671h-0.04c-0.73.117-1.38,0.233-1.94,0.348a2.7,2.7,0,0,1,.4.088,1.651,1.651,0,0,1,1.37,1.035,1.164,1.164,0,0,1-.66,1.124,0.758,0.758,0,0,1-.16.107,0.955,0.955,0,0,1,.13.548,1.489,1.489,0,0,1,.67.97,1.377,1.377,0,0,1-.42,1.167,3.306,3.306,0,0,1-2.3,1.039l-0.05.079-0.06.074-1.44.927c-0.08.041-.27,0.123-1.05,0.408a2.107,2.107,0,0,0-.93.526,1.1,1.1,0,0,0-.11.592,4.669,4.669,0,0,1-.09,1.055,0.763,0.763,0,0,1-.37.49,0.891,0.891,0,0,1-.54.113,3.282,3.282,0,0,1-1.53.668,3.084,3.084,0,0,0-1.04.392,1.421,1.421,0,0,1-.33,1.48l-0.06.058a1.7,1.7,0,0,1-1.29.463,1.4,1.4,0,0,1-.67-0.274,1.174,1.174,0,0,0-.07.178,2.324,2.324,0,0,1-.42.822,1.317,1.317,0,0,1,.07.808,0.626,0.626,0,0,1-.04.134c0.13,0.083.27,0.176,0.4,0.274,0.08,0.064.14,0.1,0.17,0.127h0.71l-0.33.745a1.707,1.707,0,0,1-.71.847,3.373,3.373,0,0,1-1.42,2.715,4.14,4.14,0,0,1-1.1.7c-0.46.216-.87,0.386-1.24,0.52a4.2,4.2,0,0,0-.46.184,4.843,4.843,0,0,0-1.02,1.258,1.141,1.141,0,0,0-.09.986,1.3,1.3,0,0,0,1.04.6l0.37,0.077,0.13,1.057v1.354l0.07,0.584c0.05,0.356.09,0.69,0.12,0.983a11.105,11.105,0,0,1,0,1.154,1.124,1.124,0,0,1-.75,1.217,1.852,1.852,0,0,1-1.18-.181c-0.46-.227-0.97-0.822-1.77-3.732v-0.039a3.754,3.754,0,0,0-.51-1.156,1.973,1.973,0,0,1-.34.192,0.878,0.878,0,0,1-.9-0.019,4.562,4.562,0,0,1-.46-0.376,4.456,4.456,0,0,0-.49-0.381,3.506,3.506,0,0,0-1.13-.3,4.547,4.547,0,0,1-1.1-.274,2.115,2.115,0,0,1-1.49.436v0.142l-0.06.118a1.46,1.46,0,0,1-.95.789,1.887,1.887,0,0,1-1.53-.46l-0.06-.052a2.134,2.134,0,0,0-1.64.03,11.6,11.6,0,0,1-1.18.192,1.376,1.376,0,0,1-.37.7,0.816,0.816,0,0,1-.82.255,0.3,0.3,0,0,0-.12,0,0.994,0.994,0,0,0-.17.05,4.918,4.918,0,0,0-.63.682,6.87,6.87,0,0,1-.49.548,5.013,5.013,0,0,1,.34,1.754c-0.03.463-.11,1.126-0.24,1.973a14.293,14.293,0,0,0-.19,1.959,6.679,6.679,0,0,0,.69,2.628,4.377,4.377,0,0,0,1.52,2,4.013,4.013,0,0,0,1.6.3,3.87,3.87,0,0,0,1.61-.113,1.406,1.406,0,0,0,.48-0.367,2.005,2.005,0,0,0,.29-0.7c0.1-.389.19-0.672,0.24-0.839a3.048,3.048,0,0,1,3.95-1.711q0.09,0.037.18,0.081a1.19,1.19,0,0,1,.59,1.268,4.254,4.254,0,0,1-.35,1.1c-0.15.342-.35,0.72-0.59,1.153a3.377,3.377,0,0,0-.37.789c-0.03.1-.05,0.217-0.08,0.343l0.93,1.485a1,1,0,0,0,.83.444,0.635,0.635,0,0,0,.71-0.345l0.47-.74,0.49,0.723c0.05,0.08.23,0.326,0.89,1.113a3.894,3.894,0,0,1,.96,1.776c0.03,0.145.11,0.422,0.27,0.934a2.239,2.239,0,0,1,.16,1.277,1.1,1.1,0,0,1-1.17.652,0.858,0.858,0,0,0,.03.159,4.041,4.041,0,0,0,.17.589,5.8,5.8,0,0,0,.27.581,2.34,2.34,0,0,1,.24.493,2.04,2.04,0,0,0,2.58,1.3,2,2,0,0,0,.45-0.208l0.76-.368v0.847a2.555,2.555,0,0,1-1.5,2.982,1.188,1.188,0,0,1-.29.035,2.226,2.226,0,0,1-1.6-.986,4.571,4.571,0,0,1-.48-0.685l-0.3.2-0.29-.37a6.812,6.812,0,0,0-1.27-1.058,7.981,7.981,0,0,1-1.5-1.252l-0.03-.044c-0.1-.156-0.24-0.378-0.43-0.666s-0.41-.655-0.69-1.121a7.747,7.747,0,0,1-.66-1.28l-0.04-.085a6.817,6.817,0,0,1-3.98-1.057,7.562,7.562,0,0,1-1.78-1.749,2.027,2.027,0,0,0-1.74-.967c-0.24.052-.58,0.137-0.97,0.255a4.642,4.642,0,0,1-1.27.214,4.035,4.035,0,0,1-1.43-.348,10.292,10.292,0,0,1-1.74-.927,10.05,10.05,0,0,0-1.34-.761l-0.05-.028-1.01-.548-1.21-.605a4.333,4.333,0,0,1-1.1-.822,3.016,3.016,0,0,1-.78-1.269,13.99,13.99,0,0,1-.4-1.918,5.2,5.2,0,0,0-.55-1.806,6.374,6.374,0,0,0-1.21-1.425,1.992,1.992,0,0,0-1.19-.633v-1.052a0.313,0.313,0,0,0-.22.274,1.391,1.391,0,0,0-.23-0.513,7.385,7.385,0,0,0-1-1.4c-0.11-.113-0.43-0.455-0.94-1.02s-0.96-1.057-1.31-1.471a6.5,6.5,0,0,1-1.01-1.546,2.355,2.355,0,0,1-.27-1.449c-0.12-.066-0.24-0.126-0.36-0.178l-0.07-.033q0.015,0.073.03,0.156a3.566,3.566,0,0,0,.37,1.044l0.01,0.033c0.04,0.074.25,0.457,1.29,2.192a9.363,9.363,0,0,1,1.92,5.1l-0.03.342-0.33.11a0.944,0.944,0,0,1-1.26-.422,3.212,3.212,0,0,1-.27-1.008q-0.045-.322-0.12-0.636a2.685,2.685,0,0,0-.96-0.746,3.009,3.009,0,0,1-1.42-1.334l-0.32-.74h0.62a3.382,3.382,0,0,0-.65-1.055,3.208,3.208,0,0,1-.872-1.644,4.794,4.794,0,0,1-1.027-1.858,6.107,6.107,0,0,0-.682-1.573l-0.028-.035a2.757,2.757,0,0,0-.647-0.677c-0.293-.22-0.665-0.469-1.112-0.74s-0.756-.466-0.918-0.573a3,3,0,0,1-.767-0.822,7.044,7.044,0,0,1-1.919-3.192,2.869,2.869,0,0,1-1.337-1.751,6.236,6.236,0,0,1-.51-2.541l-0.189-.1,0.105-.413a10.753,10.753,0,0,0,.06-1.683,18.271,18.271,0,0,1,.2-2.814,3.348,3.348,0,0,1,.329-1.074,2.578,2.578,0,0,1-.4-0.9,2.507,2.507,0,0,1,0-1.789,0.613,0.613,0,0,1,.4-0.345,1.282,1.282,0,0,1,1.118.485c0.181,0.159.321,0.274,0.43,0.392a0.476,0.476,0,0,0,.186-0.477,13.168,13.168,0,0,0-1.444-1.4c-1.8-1.173-2.6-1.661-2.948-1.864l-1.337,1.332a45.178,45.178,0,0,0-4.97,19.988,1.054,1.054,0,0,1,.393-0.105,2.163,2.163,0,0,1,1.242,1.238l-0.244.052a2.556,2.556,0,0,1-1.163-.062,2.6,2.6,0,0,1-.254-0.1,45.226,45.226,0,0,0,8.624,26.239h-0.019a45.1,45.1,0,0,0,45.542,17.747,2.036,2.036,0,0,1-.74-2.344,6.7,6.7,0,0,1,2.39-3.37,3.033,3.033,0,0,0,.77-3.19,23.26,23.26,0,0,1-.4-3c-0.11-1.417-.21-2.154-0.27-2.532a0.7,0.7,0,0,1-.03-0.2l1.05-.1a0.292,0.292,0,0,0-.09-0.145,1.512,1.512,0,0,0,.44.159,3.48,3.48,0,0,1,.55.192l0.08-.214a4.515,4.515,0,0,1,.53-1.052,2.987,2.987,0,0,1,.78-0.7,6.456,6.456,0,0,1,.72-0.46,6.087,6.087,0,0,0,.59-0.455c0.38-.3.68-0.518,0.93-0.68a2.932,2.932,0,0,1,1.11-.425,1.188,1.188,0,0,1,1.37.576,0.874,0.874,0,0,1,.09.145,1.874,1.874,0,0,1,.72-0.3,1.615,1.615,0,0,1,1.12.175,8.051,8.051,0,0,1,.87.578,1.555,1.555,0,0,0,.63.326l0.06,0.017a9.1,9.1,0,0,1,2.47,1.416,1.5,1.5,0,0,1,.2-0.117,3.856,3.856,0,0,0,.38-0.211,2.862,2.862,0,0,1,.53-0.242l0.32-.1h0.08a2.211,2.211,0,0,0,.6-0.046,1.322,1.322,0,0,1,1.09.192,5.2,5.2,0,0,1,.65.389c0.1,0.074.27,0.216,0.55,0.43s0.42,0.345.54,0.458c0.17,0.1.43,0.274,0.8,0.5,0.41,0.257.74,0.465,0.97,0.622a2.491,2.491,0,0,1,.78.866,1.626,1.626,0,0,1,.13.293A45.252,45.252,0,0,0,1058.86,518.789Zm-9.27,17.72a0.441,0.441,0,0,0,.17.079V536.4Zm-21.39,35.4h0.1v0.022a0.381,0.381,0,0,1,.05-0.134c0.05-.178.08-0.258,0.09-0.288v-1.449c-0.05.295-.1,0.638-0.14,1.027C1028.27,571.447,1028.23,571.716,1028.2,571.91Zm68.2,31.634,4.52-14.087h5.09l0.92-2.868h-13.65l-0.92,2.868h5.1l-4.53,14.087h3.47Zm10.2,0,2.28-7.078h0.7a5.1,5.1,0,0,1,1.68.191,1.7,1.7,0,0,1,.82.7,15.883,15.883,0,0,1,1.03,2.493l1.32,3.689h4.15l-1.04-3.307a12.767,12.767,0,0,0-1.09-2.753,5.023,5.023,0,0,0-1.4-1.423,7.7,7.7,0,0,0,3.9-1.567,6.441,6.441,0,0,0,2.15-3.152,4.265,4.265,0,0,0,.11-2.671,2.5,2.5,0,0,0-1.47-1.625,11.256,11.256,0,0,0-3.86-.457h-7.3l-5.45,16.955h3.47Zm4.53-14.087h2.71c1.4,0,2.24.019,2.51,0.058a1.429,1.429,0,0,1,1.09.665,1.713,1.713,0,0,1,.02,1.382,3.071,3.071,0,0,1-.76,1.272,2.877,2.877,0,0,1-1.2.717,14.452,14.452,0,0,1-3.19.209h-2.56Zm22.79-2.868h-3.67l-12.14,16.955h3.68l2.65-3.851h6.87l0.26,3.851h3.77Zm-7.49,10.247,4.34-6.292,0.34,6.292h-4.68Zm16.46,6.708,11.6-16.955h-3.68l-8.24,12.549-0.31-12.549h-3.76l0.69,16.955h3.7Zm20.39,0,0.92-2.856h-9.6l1.48-4.615h8.63l0.91-2.857H1157l1.21-3.759h9.27l0.92-2.868h-12.74l-5.45,16.955h13.07Zm14.53,0,0.91-2.856h-8.62l4.49-13.96h-3.47l-5.41,16.816h12.1Zm10.68,0,4.29-13.347-0.89,13.347h3.34l7.7-13.347-4.29,13.347h3.22l5.45-16.955h-5.2l-6.8,11.566,0.6-11.566h-5.19l-5.45,16.955h3.22Zm30.28-16.955h-3.67l-12.14,16.955h3.68l2.65-3.851h6.87l0.26,3.851h3.78Zm-7.49,10.247,4.34-6.292,0.35,6.292h-4.69Zm13.42,6.708,3.55-11.057,3.37,11.057h3.48l5.45-16.955h-3.22l-3.64,11.323-3.39-11.323h-3.38l-5.45,16.955h3.23Zm27.53-16.955h-3.67l-12.14,16.955h3.68l2.66-3.851h6.87l0.26,3.851h3.77Zm-7.49,10.247,4.35-6.292,0.34,6.292h-4.69Zm24.13,0.474-0.69,2.152a10.986,10.986,0,0,1-2.21,1.023,7.174,7.174,0,0,1-2.32.422,3.255,3.255,0,0,1-3.08-1.509q-0.87-1.509.1-4.528a8.583,8.583,0,0,1,2.69-4.222,6.407,6.407,0,0,1,4.08-1.422,3.213,3.213,0,0,1,2.27.723,2.492,2.492,0,0,1,.73,1.972l3.65-.636a4.224,4.224,0,0,0-1.14-3.661c-0.92-.883-2.44-1.324-4.57-1.324a10.862,10.862,0,0,0-4.39.844,11.933,11.933,0,0,0-4.3,3.157,13.082,13.082,0,0,0-2.64,4.708,9.617,9.617,0,0,0-.45,4.516,4.585,4.585,0,0,0,1.99,3.193,7.6,7.6,0,0,0,4.34,1.116,13.721,13.721,0,0,0,4.44-.793,14.054,14.054,0,0,0,3.75-1.833l2.17-6.754h-7.47l-0.92,2.856h3.97Zm17.17,6.234,0.91-2.856h-9.59l1.48-4.615h8.62l0.92-2.857h-8.62l1.21-3.759h9.27l0.92-2.868h-12.74l-5.45,16.955h13.07Zm5.51,0,4.29-13.347-0.89,13.347h3.34l7.7-13.347-4.29,13.347h3.22l5.45-16.955h-5.2l-6.8,11.566,0.6-11.566h-5.19l-5.45,16.955h3.22Zm29.29,0,0.91-2.856h-9.59l1.48-4.615h8.62l0.92-2.857h-8.62l1.21-3.759h9.27l0.92-2.868h-12.74l-5.45,16.955h13.07Zm5.6,0,3.55-11.057,3.37,11.057h3.48l5.45-16.955h-3.22l-3.64,11.323-3.39-11.323h-3.38l-5.45,16.955h3.23Zm20.81,0,4.52-14.087h5.09l0.92-2.868h-13.65l-0.92,2.868h5.09l-4.52,14.087h3.47Zm14.7-57.324-5.46,19.8c-1.22,3.548,2.67,3.978,2.67,3.978l-2.54,8.5h-6.3c-5.73-.231-7.51-6.637-7.51-6.637-7.62,7.261-17.62,10.969-23.96,3.838s-1.16-21.93,17.74-28.077c9.53-3.1,11.73-1.219,11.73-1.219,3.91-8.843.85-11.435-4.35-10.48a24.185,24.185,0,0,0-12.13,5.792l-5.04-7.7c16.81-10.146,30.78-6.746,35.43-1.264C1365.66,536.794,1361.95,546.22,1361.95,546.22Zm-28.46,12.462c-2.32,2.833-4.98,9.989-.22,10.755s10.14-2,12.17-10.439l1.02-5.676S1337.36,553.97,1333.49,558.682Zm-45.82,19.854c-21.04.173-16.11-15.262-14.51-21.974s6.34-18.122,6.34-18.122c5.28-13.213,21.52-11.548,21.52-11.548,16.7,0,18.05,10.2,13.94,24.291S1308.71,578.362,1287.67,578.536Zm10.72-41.889s-4.61-.859-6.12,3.51c0,0-4.25,12.24-5.88,19.224s0.4,9.5,3.69,9.391,5.93,0.26,7.95-4.889c0,0,4.65-15.712,5.71-19.727S1303.91,536.392,1298.39,536.647ZM1246.12,578.7c-8.65.106-10.67-5.323-11.13-8.135l-2.02,7.341h-13.72l17.98-68.05,14.45-.136-6.84,24.915c9.52-8.811,18.29-7.8,21.23-6.247,3.09,1.631,6.52,5.586,1.57,22.492S1259.77,578.537,1246.12,578.7Zm6.55-40.867c-3.09-1.177-6.18.925-9.62,3.94,0,0-4.66,15.788-5.48,19.365s3.1,5.486,5.86,5.529,5.16-.544,6.38-3.321c0,0,4.9-15.952,5.38-18.377S1255.77,539.015,1252.67,537.837Zm-55.85,40.073,17.98-68.05,14.45-.136-18.71,68.186h-13.72Zm-6.83-11.893c-1.22,3.548,2.67,3.978,2.67,3.978l-2.54,8.5h-6.3c-5.73-.231-7.51-6.637-7.51-6.637-7.62,7.261-17.62,10.969-23.96,3.838s-1.16-21.93,17.74-28.077c9.53-3.1,11.73-1.219,11.73-1.219,3.91-8.843.85-11.435-4.35-10.48a24.185,24.185,0,0,0-12.13,5.792l-5.04-7.7c16.81-10.146,30.78-6.746,35.43-1.264,3.43,4.052-.28,13.478-0.28,13.478Zm-23-7.335c-2.32,2.833-4.98,9.989-.22,10.755s10.14-2,12.17-10.439l1.02-5.676S1170.86,553.97,1166.99,558.682Zm-25.91-16.807s8.31,3.276,7.47,11.913c-1.47,15.232-14.77,23.606-22.2,23.78h-32.32l18.33-68.1,28.91,0.033c13.97,0.015,15.55,11.251,14.1,16.4C1153.95,530.9,1150.49,540.556,1141.08,541.875Zm-29.23,25.2,0.15-.105h8.51c4.07,0,8.3-2.691,8.3-2.691a8.85,8.85,0,0,0,3.76-5.352c0.39-3.077.55-4.924,0.55-4.924,0.32-4.865-4.83-6.151-4.83-6.151l-10.78.142Zm26.73-44.834c-1.05-1.786-5.24-2.116-5.24-2.116l-8.22-.012-5.15,17.026h-0.07l0.02,0.16,0.05-.16h8.64c5.17-.065,9.08-4.87,9.08-4.87a17.483,17.483,0,0,0,1.42-3.17l0.36-3.053A5.429,5.429,0,0,0,1138.58,522.241Z"/>
</svg>
